<svg width="147" height="15" viewBox="0 0 147 15" fill="none" xmlns="http://www.w3.org/2000/svg">
<path d="M0.468324 7.11675L0 7.74062L0.523267 8.32603C3.06373 11.1588 5.65172 13.3835 8.28724 15V12.6087C6.39563 11.3064 4.51797 9.65272 2.65427 7.64759C4.00384 6.06057 5.51076 4.59987 7.15436 3.28551C7.50757 3.00397 7.88694 2.71498 8.28854 2.42724V0C7.41626 0.560814 6.5761 1.16527 5.77163 1.81082C3.7959 3.38159 2.01652 5.16185 0.468324 7.11675ZM36.7189 7.11675L37.1886 7.73689L36.6653 8.32231C34.1248 11.1551 31.5368 13.3798 28.9013 14.9963V12.6087C30.7929 11.3064 32.6702 9.65272 34.533 7.64759C33.1849 6.0594 31.6788 4.59782 30.0355 3.28303C29.681 3.00149 29.3029 2.7125 28.9013 2.42476V0C29.7731 0.561423 30.6133 1.16586 31.4182 1.81082C33.3929 3.38186 35.1714 5.1621 36.7189 7.11675Z" fill="black"/>
<path d="M18.5932 11.5604C21.041 11.5604 23.0253 9.67908 23.0253 7.35833C23.0253 5.03759 21.041 3.15625 18.5932 3.15625C16.1454 3.15625 14.1611 5.03759 14.1611 7.35833C14.1611 9.67908 16.1454 11.5604 18.5932 11.5604Z" fill="black"/>
<path d="M52.8579 9.67421L52.9116 10.2249L51.2607 13.6431H48.3042L54.7443 0.881836L61.2014 13.6431H58.2266L56.6307 10.3415L56.6673 9.70522L54.7443 5.52546L52.8579 9.67421ZM51.7329 8.96973H57.846L58.1364 10.9467H51.4242L51.7329 8.96973Z" fill="black"/>
<path d="M70.9328 10.7545C71.2352 11.0722 71.5949 11.3364 71.995 11.5346C72.3817 11.7233 72.8108 11.8203 73.2456 11.8174C73.5603 11.8241 73.8728 11.7657 74.1613 11.6463C74.4139 11.5414 74.6274 11.3671 74.7746 11.1461C74.9217 10.925 74.9956 10.6672 74.9868 10.406C75.0004 10.0812 74.8945 9.76199 74.6872 9.50306C74.4449 9.23798 74.1445 9.02632 73.8068 8.88292C73.4196 8.70597 72.94 8.51414 72.3678 8.30743C72.0526 8.19208 71.702 8.04945 71.3213 7.87705C70.9201 7.69684 70.5451 7.4684 70.2054 7.19737C69.8462 6.91616 69.5496 6.57002 69.3329 6.1791C69.0956 5.71963 68.9806 5.21203 68.998 4.70068C68.9827 4.07126 69.1728 3.45272 69.5422 2.92956C69.9162 2.41494 70.4346 2.0098 71.0387 1.75997C71.7152 1.4764 72.4485 1.33548 73.1881 1.34695C73.9054 1.3311 74.6176 1.46623 75.2733 1.7426C76.3168 2.19224 77.1644 2.96997 77.6725 3.94411L75.6409 5.04424C75.4626 4.7626 75.2525 4.50018 75.0143 4.26162C74.7834 4.03012 74.5099 3.84055 74.2071 3.70225C73.8954 3.56341 73.5547 3.49303 73.2103 3.49637C72.9153 3.4867 72.6214 3.53659 72.3482 3.64272C72.1426 3.7259 71.9665 3.86321 71.8406 4.03837C71.7253 4.20423 71.6652 4.3991 71.668 4.59774C71.6666 4.81187 71.7331 5.02145 71.859 5.19928C72.0024 5.39814 72.1839 5.56978 72.394 5.70531C72.669 5.88405 72.9638 6.03377 73.2731 6.15181C73.6307 6.29569 74.0449 6.44204 74.5159 6.59087C74.928 6.74075 75.3281 6.919 75.7128 7.1242C76.0932 7.32449 76.4416 7.57506 76.7476 7.86837C77.0546 8.16853 77.3031 8.51791 77.4815 8.90028C77.676 9.33106 77.7719 9.79608 77.7627 10.2646C77.7729 10.807 77.6455 11.3438 77.3912 11.8298C77.1488 12.2819 76.8012 12.6759 76.3748 12.9821C75.9407 13.2949 75.4542 13.5364 74.9358 13.6965C74.403 13.8623 73.8456 13.946 73.2849 13.9445C72.534 13.9512 71.7897 13.8106 71.0989 13.5315C70.444 13.2669 69.8473 12.8882 69.3394 12.4152C68.8523 11.9654 68.456 11.4349 68.1699 10.85L70.0746 9.56012C70.3051 9.9917 70.5935 10.3932 70.9328 10.7545Z" fill="black"/>
<path d="M88.7916 1.60498V13.6432H86.1753V1.60498H88.7916ZM87.7752 1.60498H90.2973C91.3003 1.60498 92.1558 1.7625 92.864 2.07753C93.5323 2.36058 94.0949 2.82831 94.4782 3.41952C94.858 4.03715 95.0496 4.74258 95.0316 5.4573C95.0519 6.17502 94.8602 6.88384 94.4782 7.50377C94.0948 8.08865 93.5314 8.54796 92.864 8.81972C92.1567 9.12317 91.3011 9.2749 90.2973 9.2749H87.7778V7.17634H90.2999C90.7014 7.18395 91.1008 7.12 91.4773 6.98782C91.7909 6.88029 92.0606 6.68146 92.2478 6.41977C92.4333 6.13046 92.5243 5.79558 92.5094 5.4573C92.5219 5.12163 92.431 4.78977 92.2478 4.50229C92.0605 4.23497 91.7918 4.02815 91.4773 3.90943C91.1037 3.76544 90.7032 3.69497 90.2999 3.7023H87.7778L87.7752 1.60498Z" fill="black"/>
<path d="M105.951 1.60498V13.6432H103.412V1.60498H105.951ZM105.081 1.60498H111.502V3.7023H105.081V1.60498ZM105.081 6.21388H111.139V8.27771H105.081V6.21388ZM105.081 11.5471H111.502V13.6432H105.081V11.5471Z" fill="black"/>
<path d="M122.837 9.24008C123.043 9.70505 123.349 10.1241 123.736 10.4704C124.111 10.8058 124.551 11.0687 125.032 11.2444C125.524 11.4234 126.047 11.5138 126.574 11.511C127.126 11.5192 127.675 11.4434 128.201 11.2865C128.655 11.1486 129.086 10.9489 129.48 10.6937C129.843 10.4571 130.172 10.1769 130.458 9.86022V12.6509C129.955 13.038 129.388 13.3458 128.781 13.5625C128.171 13.7799 127.4 13.8887 126.468 13.8887C125.545 13.8986 124.629 13.7442 123.766 13.4335C122.967 13.1443 122.236 12.709 121.615 12.1523C121.002 11.5966 120.517 10.9258 120.192 10.1827C119.843 9.37241 119.671 8.50388 119.684 7.62895C119.671 6.75402 119.844 5.88552 120.192 5.0752C120.518 4.32807 121.002 3.65255 121.615 3.09075C122.235 2.52972 122.966 2.09124 123.766 1.80085C124.629 1.49014 125.545 1.33574 126.468 1.34566C127.398 1.34566 128.169 1.4515 128.781 1.66318C129.395 1.87872 129.963 2.19763 130.457 2.60455V5.38775C130.164 5.07694 129.836 4.79745 129.479 4.55428C129.09 4.28964 128.658 4.08649 128.201 3.95274C127.674 3.80223 127.127 3.72944 126.577 3.73693C126.05 3.73417 125.527 3.8246 125.035 4.00359C124.554 4.18026 124.114 4.44303 123.738 4.77753C123.351 5.12362 123.044 5.5427 122.837 6.00789C122.614 6.51878 122.503 7.0674 122.511 7.62026C122.502 8.17562 122.613 8.72688 122.837 9.24008Z" fill="black"/>
<path d="M137.55 1.60498H147V3.84493H143.573V13.6432H140.979V3.84493H137.55V1.60498Z" fill="black"/>
</svg>
